<svg xmlns="http://www.w3.org/2000/svg" version="1.1" xmlns:xlink="http://www.w3.org/1999/xlink" xmlns:svgjs="http://svgjs.dev/svgjs" width="1980" height="1080" preserveAspectRatio="none" viewBox="0 0 1980 1080"><g mask="url(&quot;#SvgjsMask1211&quot;)" fill="none"><rect width="1980" height="1080" x="0" y="0" fill="rgba(255, 255, 255, 1)"></rect><path d="M1125.149,332.3C1174.656,329.962,1219.199,303.657,1243.994,260.743C1268.803,217.805,1271.27,165.026,1246.676,121.964C1221.887,78.562,1175.128,53.225,1125.149,52.658C1074.126,52.079,1026.118,76.085,998.748,119.149C969.156,165.71,956.988,225.515,985.128,272.968C1012.84,319.699,1070.879,334.863,1125.149,332.3" fill="rgba(239, 239, 239, 1)" class="triangle-float3"></path><path d="M3.682,148.651C37.112,148.927,60.024,118.427,75.694,88.896C90.18,61.595,95.739,29.837,81.199,2.565C65.809,-26.303,36.379,-47.239,3.682,-46.178C-27.572,-45.164,-51.101,-20.385,-65.585,7.328C-78.889,32.784,-78.938,61.931,-66.297,87.723C-51.707,117.49,-29.467,148.377,3.682,148.651" fill="rgba(239, 239, 239, 1)" class="triangle-float2"></path><path d="M766.409,920.532C835.775,915.98,889.742,867.409,924.631,807.284C959.684,746.877,979.157,673.745,944.947,612.856C910.177,550.97,837.391,526.308,766.409,525.67C694.1,525.02,621.706,549.013,582.224,609.595C538.997,675.923,527.26,762.596,567.609,830.712C607.33,897.767,688.639,925.635,766.409,920.532" fill="rgba(239, 239, 239, 1)" class="triangle-float3"></path><path d="M463.55,595.665C572.178,590.59,645.733,497.851,699.44,403.293C752.273,310.273,788.818,202.594,741.222,106.789C688.768,1.205,581.258,-78.185,463.55,-71.525C353.695,-65.31,288.926,39.246,235.444,135.405C184.041,227.825,139.163,332.521,186.124,427.275C237.61,531.16,347.732,601.076,463.55,595.665" fill="rgba(239, 239, 239, 1)" class="triangle-float2"></path><path d="M516.909,475.348C580.137,473.63,629.418,424.879,658.064,368.487C683.915,317.597,680.704,258.333,652.298,208.824C623.746,159.062,574.258,120.883,516.909,122.471C461.731,123.999,422.677,168.867,393.916,215.981C363.437,265.909,336.748,323.682,361.812,376.536C389.963,435.9,451.232,477.132,516.909,475.348" fill="rgba(239, 239, 239, 1)" class="triangle-float1"></path><path d="M145.529,928.047C218.323,928.473,301.586,931.452,340.897,870.184C382.24,805.749,362.001,720.619,319.456,656.971C281.524,600.224,213.786,577.761,145.529,577.908C77.58,578.054,10.325,601.009,-27.109,657.716C-68.648,720.641,-86.498,804.373,-45.916,867.919C-7.33,928.34,73.839,927.627,145.529,928.047" fill="rgba(239, 239, 239, 1)" class="triangle-float3"></path></g><defs><mask id="SvgjsMask1211"><rect width="1980" height="1080" fill="#ffffff"></rect></mask><style>
                @keyframes float1 {
                    0%{transform: translate(0, 0)}
                    50%{transform: translate(-10px, 0)}
                    100%{transform: translate(0, 0)}
                }

                .triangle-float1 {
                    animation: float1 5s infinite;
                }

                @keyframes float2 {
                    0%{transform: translate(0, 0)}
                    50%{transform: translate(-5px, -5px)}
                    100%{transform: translate(0, 0)}
                }

                .triangle-float2 {
                    animation: float2 4s infinite;
                }

                @keyframes float3 {
                    0%{transform: translate(0, 0)}
                    50%{transform: translate(0, -10px)}
                    100%{transform: translate(0, 0)}
                }

                .triangle-float3 {
                    animation: float3 6s infinite;
                }
            </style></defs></svg>