<svg id="visual" viewBox="0 0 1920 1080" width="1920" height="1080" xmlns="http://www.w3.org/2000/svg" xmlns:xlink="http://www.w3.org/1999/xlink" version="1.1"><rect x="0" y="0" width="1920" height="1080" fill="#FFFFFF"></rect><defs><linearGradient id="grad1_0" x1="43.8%" y1="0%" x2="100%" y2="100%"><stop offset="14.444444444444446%" stop-color="#ffffff" stop-opacity="1"></stop><stop offset="85.55555555555554%" stop-color="#ffffff" stop-opacity="1"></stop></linearGradient></defs><defs><linearGradient id="grad2_0" x1="0%" y1="0%" x2="56.3%" y2="100%"><stop offset="14.444444444444446%" stop-color="#ffffff" stop-opacity="1"></stop><stop offset="85.55555555555554%" stop-color="#ffffff" stop-opacity="1"></stop></linearGradient></defs><g transform="translate(1920, 0)"><path d="M0 864C-52.7 831.5 -105.4 799 -154.1 774.8C-202.9 750.6 -247.7 734.7 -300.4 725.2C-353.1 715.8 -413.7 712.7 -456.7 683.5C-499.7 654.3 -525.1 598.9 -552.3 552.3C-579.4 505.6 -608.4 467.7 -645.2 431.1C-682 394.6 -726.6 359.5 -764 316.5C-801.5 273.5 -831.9 222.6 -847.4 168.6C-862.9 114.5 -863.4 57.2 -864 0L0 0Z" fill="#f1f1f1"></path></g><g transform="translate(0, 1080)"><path d="M0 -864C59.2 -867.6 118.3 -871.1 168.6 -847.4C218.8 -823.7 260.1 -772.6 310 -748.3C359.9 -724.1 418.3 -726.6 475 -710.9C531.7 -695.2 586.7 -661.4 606 -606C625.3 -550.6 608.9 -473.5 632.7 -422.8C656.6 -372.1 720.7 -347.7 734.5 -304.2C748.2 -260.7 711.6 -198.1 724.8 -144.2C738 -90.3 801 -45.1 864 0L0 0Z" fill="#f1f1f1"></path></g></svg>